<svg width="74" height="85" viewBox="0 0 74 85" fill="none" xmlns="http://www.w3.org/2000/svg">
<path d="M40.4973 2C58.7979 8.91904 71.9096 26.3373 72.42 46.8705C72.9947 66.3739 56.822 83 37.2176 83C17.7675 83 2 67.294 2 47.9195C2 35.6293 8.34476 24.8152 17.9495 18.5503C17.1115 24.1844 18.0704 30.041 20.7002 35.1043C34.7334 31.0377 43.5448 16.1245 40.4973 2Z" fill="#F56565"/>
<g style="mix-blend-mode:multiply" opacity="0.5">
<path d="M58.3349 75.8302C55.2837 76.6936 52.1278 77.1311 48.9568 77.1304C29.5067 77.1304 13.7391 61.4244 13.7391 42.0499C13.7391 36.1167 15.2178 30.5277 17.8279 25.6285C17.5616 23.2738 17.6025 20.8945 17.9495 18.5503C8.34453 24.8152 2 35.6293 2 47.9195C2 67.294 17.7675 83 37.2176 83C45.1 83 52.4275 80.3122 58.3349 75.8302ZM32.0785 28.5128C32.195 28.7553 32.3153 28.996 32.4393 29.2348C42.4307 26.3394 49.7752 17.9457 52.077 8.25297C48.513 5.66199 44.6186 3.55905 40.4973 2C42.597 11.7317 39.067 21.838 32.0785 28.5128Z" fill="#F56565"/>
</g>
<path d="M40.4973 2C58.7979 8.91904 71.9096 26.3373 72.42 46.8705C72.9947 66.3739 56.822 83 37.2176 83C17.7675 83 2 67.294 2 47.9195C2 35.6293 8.34476 24.8152 17.9495 18.5503C17.1115 24.1844 18.0704 30.041 20.7002 35.1043C34.7334 31.0377 43.5448 16.1245 40.4973 2Z" stroke="black" stroke-width="3" stroke-linecap="round" stroke-linejoin="round"/>
</svg>
